<svg width="40" height="40" viewBox="0 0 40 40" fill="none" xmlns="http://www.w3.org/2000/svg">
<rect width="40" height="40" rx="5" fill="#B53B1B"/>
<path d="M19.8844 16.8254V13.0159H15.9191V10.4762H19.8844V6.66669H22.528V10.4762H26.4933V13.0159H22.528V16.8254H19.8844ZM14.5974 33.3334C13.8704 33.3334 13.2483 33.0849 12.731 32.588C12.2129 32.0902 11.9538 31.4921 11.9538 30.7937C11.9538 30.0953 12.2129 29.4972 12.731 28.9994C13.2483 28.5025 13.8704 28.254 14.5974 28.254C15.3243 28.254 15.9464 28.5025 16.4637 28.9994C16.9818 29.4972 17.2409 30.0953 17.2409 30.7937C17.2409 31.4921 16.9818 32.0902 16.4637 32.588C15.9464 33.0849 15.3243 33.3334 14.5974 33.3334ZM27.815 33.3334C27.0881 33.3334 26.466 33.0849 25.9487 32.588C25.4306 32.0902 25.1715 31.4921 25.1715 30.7937C25.1715 30.0953 25.4306 29.4972 25.9487 28.9994C26.466 28.5025 27.0881 28.254 27.815 28.254C28.542 28.254 29.1646 28.5025 29.6827 28.9994C30.1999 29.4972 30.4586 30.0953 30.4586 30.7937C30.4586 31.4921 30.1999 32.0902 29.6827 32.588C29.1646 33.0849 28.542 33.3334 27.815 33.3334ZM14.5974 26.9841C13.606 26.9841 12.846 26.5659 12.3173 25.7295C11.7886 24.894 11.7776 24.0635 12.2843 23.2381L14.0686 20.127L9.31028 10.4762H6.66675V7.93653H10.9955L16.6131 19.3651H25.8985L31.0203 10.4762L33.3334 11.6826L28.2116 20.5714C27.9692 20.9947 27.6498 21.3228 27.2533 21.5556C26.8568 21.7884 26.4051 21.9048 25.8985 21.9048H16.0513L14.5974 24.4445H30.4586V26.9841H14.5974Z" fill="white"/>
</svg>
